<svg width="55" height="62" viewBox="0 0 55 62" fill="none" xmlns="http://www.w3.org/2000/svg">
    <path d="M42.9729 22.0042V13.8497C45.0438 14.691 53.9102 18.4447 54.5574 26.2756V35.4656C54.5574 43.2965 44.2025 48.2797 38.8309 49.6388C34.7537 50.6743 31.3236 51.1273 27.2463 51.1273C31.3236 52.1628 36.4363 51.8392 38.8309 51.4509V55.2046C38.8309 58.6347 34.0418 62 27.2463 62C20.4509 62 15.6618 58.5699 15.6618 55.2046V49.5741C10.3549 48.2797 0 43.3612 0 35.4656V26.2756C0.7119 18.4447 9.57829 14.691 11.5846 13.8497V22.0042C5.43633 24.5282 2.07098 28.3466 0.906054 31.0647C2.91232 35.5303 8.21921 39.2839 15.7265 41.4843V6.79541C15.7265 3.04175 20.5804 0 27.5052 0C33.7829 0 38.8956 3.04175 38.8956 6.79541V41.4196C46.4029 39.2192 51.7098 35.4656 53.7161 31.0647C52.5511 28.3466 49.1211 24.5282 42.9729 22.0042Z" fill="#1d66f3" />
</svg>